<svg width="626" height="509" viewBox="0 0 626 509" fill="none" xmlns="http://www.w3.org/2000/svg">
<path d="M301.075 120.874L467.698 217.905V411.968L301.075 509L134.452 411.968V217.905L301.075 120.874Z" fill="white"/>
<path d="M60.4368 323.808L112.777 354.304V415.295L60.4368 445.791L8.097 415.295V354.304L60.4368 323.808Z" fill="#023E8A"/>
<path d="M121.428 431.375L151.68 449.118V484.603L121.428 502.346L91.1767 484.603V449.118L121.428 431.375Z" fill="#4AC6E9"/>
<path d="M528.406 195.172L569.222 219.014V266.698L528.406 290.54L487.591 266.698V219.014L528.406 195.172Z" fill="#981F2B"/>
<path d="M10.7685 89.312L26.0601 80.4834L41.3516 89.312V106.969L26.0601 115.798L10.7685 106.969V89.312Z" stroke="#CCCCCC" stroke-width="1.10893"/>
<path d="M545.29 176.086L582.19 154.782L619.089 176.086V218.694L582.19 239.998L545.29 218.694V176.086Z" stroke="#CCCCCC" stroke-width="1.10893"/>
<path d="M372.692 380.284L373.624 359.328C383.34 354.134 394.177 351.391 405.194 351.336C390.032 363.733 391.926 387.629 381.647 404.299C378.401 409.474 374.032 413.852 368.864 417.108C363.696 420.365 357.861 422.417 351.792 423.113L339.104 430.881C337.363 421.175 337.747 411.207 340.229 401.663C342.711 392.12 347.233 383.228 353.483 375.6C357.031 371.355 361.1 367.575 365.593 364.347C368.632 372.36 372.692 380.284 372.692 380.284Z" fill="#F2F2F2"/>
<path d="M311.101 420.91L321.683 420.91L326.718 380.094H311.1L311.101 420.91Z" fill="#FFB6B6"/>
<path d="M308.402 417.455L311.381 417.455L323.009 412.726L329.242 417.454H329.243C332.765 417.455 336.143 418.854 338.633 421.344C341.124 423.835 342.523 427.213 342.523 430.735V431.166L308.403 431.168L308.402 417.455Z" fill="#2F2E41"/>
<path d="M215.487 407.152L224.959 411.873L247.671 377.589L233.694 370.622L215.487 407.152Z" fill="#FFB6B6"/>
<path d="M214.613 402.856L217.279 404.185L229.796 405.14L233.264 412.152L233.265 412.152C236.417 413.724 238.816 416.483 239.934 419.823C241.052 423.163 240.798 426.81 239.227 429.962L239.034 430.349L208.496 415.129L214.613 402.856Z" fill="#2F2E41"/>
<path d="M315.79 235.539L248.508 237.294L249.678 270.058C249.678 270.058 248.508 278.834 250.848 281.174C253.188 283.514 254.358 283.514 253.188 287.61C252.018 291.705 248.993 330.836 248.993 330.836C248.993 330.836 221.378 379.663 222.548 380.833C223.719 382.004 224.889 380.833 223.719 383.759C222.548 386.684 221.378 385.514 222.548 386.684C223.585 387.802 224.561 388.973 225.474 390.194H244.545C244.545 390.194 245.611 384.344 245.611 383.759C245.611 383.174 246.781 379.663 246.781 379.078C246.781 378.493 280.101 343.191 280.101 343.191L287.122 284.684L304.089 342.021C304.089 342.021 304.089 392.336 305.259 393.507C306.429 394.677 306.429 394.092 305.844 396.432C305.259 398.772 302.919 398.187 304.674 399.942C306.429 401.697 307.014 398.772 306.429 401.697L305.844 404.623L328.322 404.874C328.322 404.874 330.662 399.942 329.492 398.187C328.322 396.432 328.392 396.911 329.819 394.039C331.247 391.166 331.832 390.581 331.247 389.996C330.662 389.411 330.662 386.299 330.662 386.299C330.662 386.299 322.226 271.228 322.226 269.473C322.182 268.57 322.348 267.669 322.712 266.841V264.458L320.471 256.016L315.79 235.539Z" fill="#2F2E41"/>
<path d="M475.959 124.535H377.865C375.867 124.533 373.952 123.738 372.54 122.325C371.127 120.913 370.332 118.998 370.33 117V27.446C370.332 25.4483 371.127 23.5331 372.54 22.1205C373.952 20.7079 375.868 19.9134 377.865 19.9112H475.959C477.957 19.9134 479.872 20.7079 481.285 22.1205C482.698 23.5331 483.492 25.4483 483.495 27.446V117C483.492 118.998 482.698 120.913 481.285 122.325C479.872 123.738 477.957 124.533 475.959 124.535V124.535Z" fill="#E42428"/>
<path d="M406.767 69.8325C413.52 69.8325 418.994 64.3582 418.994 57.6052C418.994 50.8523 413.52 45.3779 406.767 45.3779C400.014 45.3779 394.54 50.8523 394.54 57.6052C394.54 64.3582 400.014 69.8325 406.767 69.8325Z" fill="#E42428"/>
<path d="M455.644 84.6807H398.181C397.215 84.6807 396.289 84.2971 395.606 83.6142C394.923 82.9314 394.54 82.0053 394.54 81.0397C394.54 80.074 394.923 79.1479 395.606 78.465C396.289 77.7822 397.215 77.3986 398.181 77.3986H455.644C456.609 77.3986 457.536 77.7822 458.218 78.465C458.901 79.1479 459.285 80.074 459.285 81.0397C459.285 82.0053 458.901 82.9314 458.218 83.6142C457.536 84.2971 456.609 84.6807 455.644 84.6807V84.6807Z" fill="#E42428"/>
<path d="M425.91 99.0683H398.181C397.215 99.0683 396.289 98.6847 395.606 98.0019C394.923 97.319 394.54 96.3928 394.54 95.4271C394.54 94.4614 394.923 93.5352 395.606 92.8524C396.289 92.1695 397.215 91.7859 398.181 91.7859H425.91C426.875 91.7859 427.801 92.1695 428.484 92.8524C429.167 93.5352 429.551 94.4614 429.551 95.4271C429.551 96.3928 429.167 97.319 428.484 98.0019C427.801 98.6847 426.875 99.0683 425.91 99.0683V99.0683Z" fill="#E42428"/>
<path opacity="0.5" d="M475.959 124.535H377.865C375.867 124.533 373.952 123.738 372.54 122.325C371.127 120.913 370.332 118.998 370.33 117V27.446C370.332 25.4483 371.127 23.5331 372.54 22.1205C373.952 20.7079 375.868 19.9134 377.865 19.9112H475.959C477.957 19.9134 479.872 20.7079 481.285 22.1205C482.698 23.5331 483.492 25.4483 483.495 27.446V117C483.492 118.998 482.698 120.913 481.285 122.325C479.872 123.738 477.957 124.533 475.959 124.535V124.535Z" fill="#E42428"/>
<path d="M406.767 69.8325C413.52 69.8325 418.994 64.3582 418.994 57.6052C418.994 50.8523 413.52 45.3779 406.767 45.3779C400.014 45.3779 394.54 50.8523 394.54 57.6052C394.54 64.3582 400.014 69.8325 406.767 69.8325Z" fill="white"/>
<path d="M455.644 84.6807H398.181C397.215 84.6807 396.289 84.2971 395.606 83.6142C394.923 82.9314 394.54 82.0053 394.54 81.0397C394.54 80.074 394.923 79.1479 395.606 78.465C396.289 77.7822 397.215 77.3986 398.181 77.3986H455.644C456.609 77.3986 457.536 77.7822 458.218 78.465C458.901 79.1479 459.285 80.074 459.285 81.0397C459.285 82.0053 458.901 82.9314 458.218 83.6142C457.536 84.2971 456.609 84.6807 455.644 84.6807V84.6807Z" fill="white"/>
<path d="M425.91 99.0683H398.181C397.215 99.0683 396.289 98.6847 395.606 98.0019C394.923 97.319 394.54 96.3928 394.54 95.4271C394.54 94.4614 394.923 93.5352 395.606 92.8524C396.289 92.1695 397.215 91.7859 398.181 91.7859H425.91C426.875 91.7859 427.801 92.1695 428.484 92.8524C429.167 93.5352 429.551 94.4614 429.551 95.4271C429.551 96.3928 429.167 97.319 428.484 98.0019C427.801 98.6847 426.875 99.0683 425.91 99.0683V99.0683Z" fill="white"/>
<path d="M379.889 39.2339C390.723 39.2339 399.506 30.4511 399.506 19.617C399.506 8.78281 390.723 0 379.889 0C369.055 0 360.272 8.78281 360.272 19.617C360.272 30.4511 369.055 39.2339 379.889 39.2339Z" fill="#FF6584"/>
<path d="M433.721 430.484C433.721 430.63 433.693 430.775 433.637 430.91C433.581 431.045 433.499 431.168 433.396 431.271C433.293 431.374 433.17 431.456 433.035 431.512C432.9 431.567 432.755 431.596 432.609 431.595H170.778C170.484 431.595 170.201 431.478 169.992 431.27C169.784 431.061 169.667 430.779 169.667 430.484C169.667 430.189 169.784 429.906 169.992 429.698C170.201 429.489 170.484 429.372 170.778 429.372H432.609C432.755 429.372 432.9 429.4 433.035 429.456C433.17 429.512 433.293 429.593 433.396 429.697C433.499 429.8 433.581 429.923 433.637 430.058C433.692 430.193 433.721 430.338 433.721 430.484V430.484Z" fill="#CCCCCC"/>
<path d="M375.696 71.5781C376.503 73.833 376.391 76.3144 375.384 78.4874C374.378 80.6604 372.558 82.3509 370.317 83.1943C369.821 83.3795 369.31 83.5204 368.789 83.6154L363.608 115.338L351.455 104.117L358.238 75.7127C357.987 73.3192 358.688 70.923 360.189 69.0422C361.691 67.1614 363.872 65.9472 366.262 65.6618C368.272 65.4314 370.301 65.8915 372.016 66.9666C373.73 68.0417 375.028 69.6679 375.696 71.5781L375.696 71.5781Z" fill="#FFB6B6"/>
<path d="M286.005 143.459C286.005 143.459 295.438 130.996 329.666 131.337L349.094 124.278L353.534 83.5778L369.074 87.2779L366.854 137.599L333.554 156.839L289.893 165.719L286.005 143.459Z" fill="#3F3D56"/>
<path d="M280.993 117.495C292.213 117.495 301.308 108.4 301.308 97.1799C301.308 85.9601 292.213 76.8646 280.993 76.8646C269.773 76.8646 260.678 85.9601 260.678 97.1799C260.678 108.4 269.773 117.495 280.993 117.495Z" fill="#FFB6B6"/>
<path d="M246.609 251.215C246.573 251.215 246.537 251.21 246.503 251.2C246.128 251.096 245.831 251.013 247.185 239.309L248.646 230.058L247.22 221.889L244.821 219.491L248.676 215.636L251.911 206.445L246.313 198.15L239.891 164.225C238.786 158.371 239.644 152.317 242.332 147C245.019 141.684 249.385 137.402 254.753 134.82L262.187 132.648L264.892 127.688C265.651 126.295 266.77 125.131 268.131 124.316C269.492 123.501 271.046 123.065 272.633 123.053L286.246 122.951C287.619 122.94 288.976 123.248 290.211 123.851C291.445 124.453 292.523 125.333 293.361 126.421L298.11 132.595L317.804 139.285L314.539 209.646C315.057 210.08 315.48 210.617 315.781 211.223C316.081 211.829 316.253 212.491 316.284 213.166C316.316 213.842 316.207 214.517 315.964 215.148C315.721 215.78 315.35 216.354 314.874 216.834C314.669 217.041 314.507 217.209 314.406 217.32C314.074 217.792 314.697 221.313 315.467 224.303L316.453 228.882C316.136 229.108 315.87 229.397 315.671 229.732C315.472 230.066 315.345 230.438 315.296 230.824C315.248 231.21 315.281 231.602 315.392 231.975C315.503 232.348 315.69 232.694 315.941 232.991L317.199 234.476C317.448 236.339 316.947 238.225 315.808 239.719C314.668 241.214 312.983 242.196 311.12 242.449C293.122 244.899 246.703 251.215 246.609 251.215Z" fill="#3F3D56"/>
<path d="M275.797 116.5C275.71 116.309 275.623 116.118 275.537 115.925C275.57 115.926 275.603 115.931 275.636 115.932L275.797 116.5Z" fill="#2F2E41"/>
<path d="M260.113 77.7885C261.078 76.8784 262.332 76.3363 263.655 76.257C264.969 76.2994 266.301 77.4859 266.029 78.7717C268.442 74.4994 272.283 71.2135 276.877 69.4908C281.471 67.768 286.525 67.7186 291.153 69.3511C294.418 70.503 297.619 72.8075 298.369 76.1876C298.442 77.075 298.707 77.936 299.145 78.7112C299.525 79.1256 300.017 79.42 300.562 79.558C301.107 79.696 301.68 79.6717 302.211 79.488L302.243 79.4785C302.425 79.4164 302.621 79.4103 302.807 79.461C302.992 79.5116 303.158 79.6167 303.283 79.7627C303.408 79.9086 303.486 80.0887 303.507 80.2796C303.529 80.4705 303.493 80.6634 303.403 80.8335L302.479 82.5564C303.644 82.816 304.854 82.7902 306.006 82.4814C306.198 82.4312 306.4 82.4415 306.586 82.5108C306.771 82.5801 306.93 82.705 307.042 82.8685C307.153 83.032 307.212 83.226 307.209 83.4239C307.206 83.6218 307.141 83.8139 307.025 83.9738C305.49 86.0743 303.485 87.7874 301.171 88.9768C298.857 90.1662 296.298 90.7991 293.696 90.8251C290.005 90.8026 286.276 89.5304 282.683 90.3793C281.293 90.7076 279.995 91.343 278.883 92.2387C277.771 93.1344 276.873 94.2678 276.256 95.5556C275.639 96.8434 275.318 98.253 275.317 99.681C275.316 101.109 275.634 102.519 276.249 103.808C275.146 102.601 273.012 102.887 271.883 104.07C271.363 104.704 270.979 105.437 270.754 106.225C270.529 107.014 270.469 107.839 270.576 108.652C270.877 111.14 271.616 113.556 272.758 115.787C268.393 115.653 264.175 114.182 260.672 111.574C257.17 108.965 254.553 105.345 253.174 101.201C251.795 97.0576 251.721 92.5906 252.962 88.4036C254.203 84.2167 256.699 80.5115 260.113 77.7885L260.113 77.7885Z" fill="#2F2E41"/>
<path d="M254.524 280.351C252.582 278.951 251.268 276.843 250.865 274.482C250.463 272.121 251.005 269.697 252.373 267.732C252.677 267.299 253.018 266.893 253.393 266.519L239.685 237.446L256.057 239.804L266.565 267.051C268.128 268.881 268.909 271.253 268.737 273.653C268.566 276.054 267.457 278.29 265.65 279.88C264.124 281.209 262.191 281.98 260.17 282.065C258.148 282.151 256.157 281.547 254.524 280.351H254.524Z" fill="#FFB6B6"/>
<path d="M250.372 264.477L228.558 215.45L228.339 176.728L235.216 155.812C236.149 152.974 237.641 150.353 239.604 148.101C241.568 145.85 243.963 144.016 246.647 142.706C249.332 141.396 252.252 140.638 255.234 140.476C258.217 140.314 261.202 140.751 264.013 141.763L264.164 141.817L264.228 141.965C264.482 142.558 270.249 156.824 253.142 186.171L249.699 206.251L261.78 252.28L250.372 264.477Z" fill="#3F3D56"/>
</svg>
